<svg width="31" height="31" viewBox="0 0 31 31" fill="none" xmlns="http://www.w3.org/2000/svg">
<path d="M16.9531 0.00136514C24.7092 0.00136514 31 6.29191 31 14.0476C31 14.8529 30.3521 15.5007 29.5469 15.5007C28.7416 15.5007 28.0938 14.8529 28.0938 14.0476C28.0938 7.89633 23.1047 2.90749 16.9531 2.90749C16.1479 2.90749 15.5 2.25966 15.5 1.45443C15.5 0.649188 16.1479 0.00136514 16.9531 0.00136514ZM17.4375 11.6259C17.9514 11.6259 18.4442 11.83 18.8075 12.1933C19.1709 12.5566 19.375 13.0494 19.375 13.5633C19.375 14.0771 19.1709 14.5699 18.8075 14.9332C18.4442 15.2966 17.9514 15.5007 17.4375 15.5007C16.9236 15.5007 16.4308 15.2966 16.0675 14.9332C15.7041 14.5699 15.5 14.0771 15.5 13.5633C15.5 13.0494 15.7041 12.5566 16.0675 12.1933C16.4308 11.83 16.9236 11.6259 17.4375 11.6259ZM15.5 7.26667C15.5 6.46143 16.1479 5.81361 16.9531 5.81361C21.5002 5.81361 25.1875 9.50075 25.1875 14.0476C25.1875 14.8529 24.5396 15.5007 23.7344 15.5007C22.9291 15.5007 22.2812 14.8529 22.2812 14.0476C22.2812 11.1052 19.8957 8.71973 16.9531 8.71973C16.1479 8.71973 15.5 8.07191 15.5 7.26667ZM7.11426 0.086127C8.28887 -0.234757 9.51797 0.36463 9.98418 1.49075L12.4061 7.303C12.8178 8.28987 12.5332 9.43415 11.7037 10.1062L8.71875 12.5522C10.735 16.8145 14.1861 20.2655 18.4486 22.2816L20.8887 19.2968C21.5668 18.4674 22.7051 18.1828 23.692 18.5945L29.5045 21.0163C30.6307 21.4825 31.2301 22.7115 30.9092 23.8861L29.4561 29.2139C29.1715 30.2674 28.2148 31 27.125 31C12.1457 31 0 18.8548 0 3.87619C0 2.7864 0.732617 1.8298 1.78613 1.53919L7.11426 0.086127Z" fill="#FEB800"/>
</svg>
