<svg width="30" height="22" viewBox="0 0 30 22" fill="none" xmlns="http://www.w3.org/2000/svg">
<path d="M2.75 0C1.23177 0 0 1.23177 0 2.75C0 3.6151 0.406771 4.42865 1.1 4.95L13.5667 14.3C14.2198 14.787 15.1135 14.787 15.7667 14.3L28.2333 4.95C28.9266 4.42865 29.3333 3.6151 29.3333 2.75C29.3333 1.23177 28.1016 0 26.5833 0H2.75ZM0 6.41667V18.3333C0 20.3557 1.64427 22 3.66667 22H25.6667C27.6891 22 29.3333 20.3557 29.3333 18.3333V6.41667L16.8667 15.7667C15.5604 16.7464 13.7729 16.7464 12.4667 15.7667L0 6.41667Z" fill="#FEB800"/>
</svg>
