<svg width="24" height="32" viewBox="0 0 24 32" fill="none" xmlns="http://www.w3.org/2000/svg">
<path d="M13.3811 30.9681C16.5635 26.9855 23.8216 17.3327 23.8216 11.9108C23.8216 5.33506 18.4866 0 11.9108 0C5.33506 0 0 5.33506 0 11.9108C0 17.3327 7.25816 26.9855 10.4406 30.9681C11.2036 31.9173 12.618 31.9173 13.3811 30.9681ZM11.9108 7.94055C12.9638 7.94055 13.9737 8.35884 14.7182 9.10342C15.4628 9.84799 15.8811 10.8578 15.8811 11.9108C15.8811 12.9638 15.4628 13.9737 14.7182 14.7182C13.9737 15.4628 12.9638 15.8811 11.9108 15.8811C10.8578 15.8811 9.84799 15.4628 9.10342 14.7182C8.35884 13.9737 7.94055 12.9638 7.94055 11.9108C7.94055 10.8578 8.35884 9.84799 9.10342 9.10342C9.84799 8.35884 10.8578 7.94055 11.9108 7.94055Z" fill="#FEB800"/>
</svg>
